<svg width="448" height="447" viewBox="0 0 448 447" fill="none" xmlns="http://www.w3.org/2000/svg">
<path d="M224 0C100.8 0 0 100.576 0 224.448C0 336.448 81.9839 429.408 189.056 446.208V289.408H132.16V224.448H189.056V174.944C189.056 118.72 222.432 87.8079 273.728 87.8079C298.144 87.8079 323.68 92.0639 323.68 92.0639V147.392H295.456C267.68 147.392 258.944 164.64 258.944 182.336V224.448H321.216L311.136 289.408H258.944V446.208C311.727 437.871 359.793 410.939 394.461 370.272C429.13 329.607 448.12 277.886 447.999 224.448C447.999 100.576 347.2 0 224 0Z" fill="white"/>
</svg>
