<svg width="448" height="448" viewBox="0 0 448 448" fill="none" xmlns="http://www.w3.org/2000/svg">
<path fill-rule="evenodd" clip-rule="evenodd" d="M354.391 316.312C348.992 331.594 327.533 344.236 310.419 347.933C298.704 350.42 283.427 352.388 231.952 331.056C174.137 307.103 93.8561 221.782 93.8561 165.003C93.8561 136.098 110.522 102.441 139.664 102.441C153.686 102.441 156.778 102.714 161.392 113.783C166.79 126.824 179.962 158.953 181.53 162.247C188.003 175.758 174.944 183.668 165.469 195.431C162.445 198.971 159.018 202.8 162.848 209.387C166.656 215.841 179.827 237.307 199.181 254.537C224.179 276.81 244.451 283.92 251.709 286.945C257.107 289.186 263.558 288.664 267.501 284.452C272.496 279.052 278.701 270.092 285.018 261.264C289.475 254.945 295.143 254.156 301.079 256.397C305.088 257.786 356.048 281.452 358.198 285.239C359.789 287.995 359.789 301.031 354.391 316.312ZM224.045 0H223.933C100.441 0 0 100.472 0 224C0 272.981 15.7922 318.424 42.6498 355.283L14.7393 438.517L100.823 411.009C136.237 434.447 178.506 448 224.045 448C347.536 448 448 347.528 448 224C448 100.472 347.536 0 224.045 0Z" fill="white"/>
</svg>
