<?xml version="1.0" standalone="no"?>
<!DOCTYPE svg PUBLIC "-//W3C//DTD SVG 20010904//EN"
 "http://www.w3.org/TR/2001/REC-SVG-20010904/DTD/svg10.dtd">
<svg version="1.0" xmlns="http://www.w3.org/2000/svg"
 width="647.000000pt" height="555.000000pt" viewBox="0 0 647.000000 555.000000"
 preserveAspectRatio="xMidYMid meet">

<g transform="translate(0.000000,555.000000) scale(0.100000,-0.100000)"
fill="#fff" stroke="none">
<path d="M3505 5481 c-58 -16 -82 -30 -107 -60 -25 -29 -30 -30 -169 -45 -152
-16 -306 -45 -377 -70 -154 -55 -287 -164 -372 -305 l-45 -74 -217 -96 c-119
-53 -220 -100 -224 -103 -3 -4 3 -19 14 -35 149 -213 73 -506 -159 -613 -40
-18 -94 -35 -121 -38 -26 -2 -48 -8 -48 -12 0 -4 22 -41 48 -81 137 -208 311
-327 562 -385 99 -23 391 -29 525 -11 61 9 111 15 111 14 5 -6 -29 -321 -51
-472 -77 -527 -214 -1072 -437 -1738 -82 -245 -243 -696 -253 -705 -2 -3 -34
7 -70 23 -202 85 -344 238 -401 430 -26 86 -24 231 4 312 34 96 84 173 164
249 117 111 250 176 442 215 55 11 102 22 104 23 1 2 -39 22 -90 44 -85 37
-215 76 -278 84 -24 3 -25 6 -28 86 -2 71 -5 83 -18 78 -9 -3 -18 -6 -20 -6
-2 0 -4 -34 -4 -75 l0 -75 -35 0 c-41 0 -42 6 -15 85 11 32 20 60 20 62 0 1
-11 3 -24 3 -22 0 -27 -8 -48 -78 l-24 -77 -50 -6 c-175 -22 -390 -142 -509
-285 -63 -77 -129 -195 -160 -285 -36 -110 -46 -287 -21 -393 20 -85 73 -208
116 -272 131 -190 360 -357 604 -440 l70 -24 835 1 c825 0 835 1 784 19 -80
28 -201 95 -277 152 -136 102 -248 273 -298 453 -31 114 -31 297 1 410 52 187
175 347 321 418 226 111 456 57 582 -138 58 -89 81 -177 76 -285 -4 -77 -9
-98 -42 -165 -31 -63 -48 -84 -97 -120 -76 -56 -117 -70 -209 -70 -62 0 -84 5
-126 27 -238 124 -160 487 104 488 43 0 57 -5 77 -25 14 -13 25 -33 25 -43 0
-30 -41 -59 -94 -66 -82 -10 -119 -46 -119 -117 0 -75 57 -129 136 -129 60 0
87 11 136 55 106 96 99 303 -15 420 -59 61 -117 86 -198 86 -120 0 -202 -34
-286 -121 -99 -100 -160 -261 -160 -416 1 -354 253 -640 634 -718 41 -9 80
-16 86 -16 6 0 10 52 10 148 0 173 11 259 46 363 47 143 139 263 257 336 l57
36 44 141 c152 485 186 596 186 610 0 12 -10 16 -35 16 -106 0 -312 63 -498
152 -96 46 -126 65 -123 77 30 100 41 211 41 411 l0 216 -101 99 c-68 68 -115
125 -147 180 -53 89 -103 211 -113 274 l-7 41 200 0 c109 0 258 -5 331 -11
124 -10 134 -9 160 9 67 48 225 116 362 157 l75 23 3 102 3 102 -48 -28 c-162
-95 -355 -172 -487 -195 -282 -48 -480 79 -569 366 -40 128 -51 224 -52 435 0
196 20 450 36 450 5 0 9 -40 9 -89 0 -48 4 -146 10 -217 36 -462 134 -702 325
-799 56 -28 67 -30 175 -30 132 0 208 19 348 87 323 157 371 458 150 948 -124
274 -171 354 -268 450 -93 93 -148 123 -298 161 -123 32 -307 47 -367 30z
m-1120 -796 c43 -42 29 -105 -26 -124 -27 -9 -37 -8 -63 7 -25 15 -32 25 -34
59 -3 34 1 44 24 62 35 28 69 27 99 -4z m212 -47 c29 -27 31 -80 3 -108 -27
-27 -83 -27 -110 2 -65 70 37 172 107 106z m-152 -133 c68 -67 -24 -165 -103
-109 -33 23 -31 86 4 113 35 28 69 26 99 -4z"/>
<path d="M5351 3270 c-44 -11 -80 -38 -113 -86 -31 -45 -36 -79 -11 -88 18 -7
43 16 43 40 0 6 18 28 40 48 51 45 106 49 162 11 32 -22 37 -23 49 -9 37 45
-84 105 -170 84z"/>
<path d="M4671 3052 c-49 -26 -92 -91 -98 -146 -5 -44 -4 -46 19 -46 21 0 26
6 31 35 16 96 126 157 195 109 18 -12 26 -13 37 -4 62 51 -100 97 -184 52z"/>
<path d="M5102 2932 c-63 -23 -92 -47 -92 -77 0 -28 17 -35 82 -35 l51 0 -6
-66 c-10 -108 -69 -213 -139 -250 -15 -8 -50 -14 -79 -14 -62 0 -104 23 -151
83 -42 54 -50 59 -67 42 -19 -19 -3 -51 53 -107 58 -58 91 -72 166 -73 54 0
73 5 113 28 59 35 110 104 132 177 9 30 19 61 21 69 3 9 14 4 36 -17 44 -44
88 -62 150 -62 58 0 117 25 149 63 48 57 64 162 25 162 -14 0 -22 -12 -31 -47
-15 -62 -36 -92 -78 -112 -88 -41 -188 7 -237 116 -10 22 -8 28 19 56 35 34
37 44 17 61 -25 21 -79 22 -134 3z"/>
<path d="M1935 2506 c-16 -7 -47 -32 -69 -56 -41 -45 -93 -147 -81 -158 4 -4
37 -6 75 -5 50 1 80 8 118 27 62 32 82 58 82 111 0 69 -63 109 -125 81z"/>
<path d="M4699 1153 c79 -82 111 -177 111 -326 -1 -75 -11 -185 -26 -263 -6
-31 -5 -32 48 -44 105 -25 165 -76 175 -151 l6 -39 47 0 47 0 -8 51 c-5 29
-20 69 -35 90 -27 40 -110 89 -150 89 -45 0 -52 8 -43 48 16 75 27 259 20 327
-17 148 -88 239 -203 260 l-36 7 47 -49z"/>
</g>
</svg>
