<svg width="419" height="482" viewBox="0 0 419 482" fill="none" xmlns="http://www.w3.org/2000/svg">
<path d="M220.063 0.401856C246.385 1.52696e-06 272.514 0.208964 298.628 0C299.496 32.6466 312.746 62.0302 333.826 83.7946L333.794 83.7625C356.482 104.193 386.005 117.438 418.55 119.688L419 119.72V200.67C388.256 199.898 359.345 192.81 333.279 180.625L334.598 181.172C321.991 175.112 311.331 168.891 301.201 161.947L302.037 162.494C301.844 221.148 302.23 279.803 301.635 338.249C299.978 368.034 290.073 395.199 274.187 417.88L274.508 417.382C247.945 455.413 204.916 480.377 155.985 481.855H155.76C153.782 481.952 151.451 482 149.103 482C121.285 482 95.2846 474.252 73.1269 460.798L73.7701 461.168C33.4423 436.912 5.62453 395.408 0.479041 347.138L0.414723 346.479C0.0127319 336.432 -0.180225 326.386 0.221766 316.549C8.10079 239.73 72.4837 180.304 150.743 180.304C159.539 180.304 168.158 181.059 176.535 182.49L175.635 182.361C176.037 212.083 174.831 241.82 174.831 271.541C168.029 269.082 160.182 267.651 151.998 267.651C121.961 267.651 96.4102 286.844 86.9554 313.639L86.8107 314.121C84.6721 320.985 83.4339 328.877 83.4339 337.043C83.4339 340.354 83.643 343.634 84.0289 346.848L83.9967 346.463C89.3352 379.35 117.539 404.169 151.547 404.169C152.528 404.169 153.493 404.153 154.458 404.105H154.313C177.838 403.397 198.259 390.747 209.804 372.053L209.965 371.763C214.258 365.784 217.2 358.55 218.181 350.69L218.197 350.465C220.207 314.507 219.403 278.758 219.596 242.8C219.789 161.851 219.403 81.0942 219.998 0.353633L220.063 0.401856Z" fill="white"/>
</svg>
